# xmcd
#
# Track frame offsets:
#	150
#	10938
#	32550
#	54816
#	74674
#	98223
#	119284
#	140613
#	161640
#	180220
#	201401
#	223110
#	251475
#	276229
#	307444
#	329960
#
# Disc length: 4667 seconds
#
# Revision: 0
# Processed by: cddbd v1.5.2PL0 Copyright (c) Steve Scherf et al.
# Submitted via: EasyCDDAExtractor 12.0.0.1
#
DISCID=f9123910
DTITLE=Various Artist - Y siguen los exitos
DYEAR=1900
DGENRE=Salsa
TTITLE0=Varios Artistas - Intromix
TTITLE1=Controversia - Buscala ya
TTITLE2=Grupo Gale - Locura automatica
TTITLE3=Grupo Caneo - Que hare sin ti
TTITLE4=Manole - Dile a ella que vuelva
TTITLE5=D.R.A. - Perdoname
TTITLE6=Super Banda G - Triste y Vacia
TTITLE7=Grupo Caneo - Dime como olvidarte
TTITLE8=Tito Nieves - Como fui a enamorarme de ti
TTITLE9=Maelo Ruiz - Culpable o no
TTITLE10=Willie Gonzales - Que estas buscando
TTITLE11=D.R.A. - Punto y aparte
TTITLE12=Grupo Gale - Nadie como tu
TTITLE13=Marc Anthony - El Cantante
TTITLE14=Victor Manuelle - A ti te duele
TTITLE15=Tito Nieves - Mas que tu amigo
EXTD=
EXTT0=
EXTT1=
EXTT2=
EXTT3=
EXTT4=
EXTT5=
EXTT6=
EXTT7=
EXTT8=
EXTT9=
EXTT10=
EXTT11=
EXTT12=
EXTT13=
EXTT14=
EXTT15=
PLAYORDER=
